<?xml version="1.0" encoding="utf-8"?>
<!-- Generator: Adobe Illustrator 24.1.1, SVG Export Plug-In . SVG Version: 6.00 Build 0)  -->
<svg version="1.1" id="Layer_1" xmlns="http://www.w3.org/2000/svg" xmlns:xlink="http://www.w3.org/1999/xlink" x="0px" y="0px"
	 viewBox="0 0 498 70" style="enable-background:new 0 0 498 70;" xml:space="preserve">
<g>
	<path d="M74,68.4h-8.2V41.5c0-5-0.8-8.7-2.5-11.1c-1.6-2.4-4.1-3.6-7.3-3.6c-3.3,0-6.3,1.2-8.9,3.5c-2.7,2.4-4.6,5.4-5.7,9.2v28.9
		h-8.2V41.5c0-5.1-0.8-8.8-2.4-11.2c-1.6-2.4-4-3.5-7.2-3.5c-3.2,0-6.2,1.1-8.9,3.4c-2.7,2.3-4.6,5.3-5.7,9.1v29H0.9V20.1h7.4v10.4
		c2-3.6,4.6-6.3,7.7-8.3c3.2-1.9,6.7-2.9,10.7-2.9c4,0,7.2,1.1,9.7,3.3c2.4,2.2,3.9,5,4.5,8.4c2.2-3.8,4.8-6.7,7.9-8.7
		c3.1-2,6.6-3,10.6-3c2.8,0,5.1,0.5,7,1.5c1.9,1,3.4,2.4,4.5,4.2c1.1,1.8,1.9,3.9,2.4,6.4c0.5,2.5,0.7,5.1,0.7,8V68.4z"/>
	<path d="M108.2,69.3c-3.7,0-7-0.7-10-2c-3-1.3-5.6-3.1-7.8-5.4c-2.2-2.3-3.9-5-5.1-8c-1.2-3-1.8-6.2-1.8-9.6
		c0-4.5,1.1-8.7,3.2-12.4c2.1-3.7,5-6.8,8.8-9c3.7-2.3,8-3.4,12.9-3.4c4.9,0,9.1,1.2,12.8,3.5c3.6,2.3,6.4,5.3,8.5,9
		c2,3.7,3,7.7,3,12c0,0.6,0,1.2,0,1.8c0,0.6-0.1,1-0.1,1.3H92.1c0.2,3.1,1.1,5.9,2.6,8.3c1.5,2.4,3.5,4.3,5.9,5.7s5,2.1,7.8,2.1
		c3,0,5.8-0.7,8.4-2.2c2.6-1.5,4.4-3.4,5.4-5.9l7.1,2c-1.1,2.4-2.6,4.5-4.7,6.3c-2.1,1.9-4.5,3.3-7.3,4.4
		C114.5,68.8,111.5,69.3,108.2,69.3z M91.9,41.4h33.1c-0.2-3.1-1.1-5.9-2.7-8.3c-1.5-2.4-3.5-4.3-5.9-5.6c-2.4-1.3-5.1-2-8-2
		c-2.8,0-5.5,0.7-7.9,2c-2.4,1.3-4.4,3.2-5.9,5.6C93,35.5,92.1,38.3,91.9,41.4z"/>
	<path d="M166.3,66.2c-0.7,0.3-1.6,0.7-2.8,1.2c-1.2,0.5-2.5,0.9-4.1,1.3c-1.5,0.4-3.2,0.6-4.9,0.6c-2,0-3.8-0.4-5.5-1.1
		c-1.7-0.7-3-1.8-4-3.3c-1-1.5-1.5-3.4-1.5-5.7V26.6h-6.6v-6.4h6.6V4h8.2v16.2h10.9v6.4h-10.9v30.1c0.1,1.7,0.7,3,1.8,3.9
		c1.1,0.8,2.3,1.3,3.7,1.3c1.6,0,3.1-0.3,4.5-0.8c1.4-0.6,2.3-1,2.7-1.2L166.3,66.2z"/>
	<path d="M170.1,54.4c0-3.1,0.9-5.7,2.6-8c1.8-2.2,4.2-4,7.3-5.2c3.1-1.2,6.7-1.8,10.8-1.8c2.2,0,4.5,0.2,6.9,0.5
		c2.4,0.3,4.6,0.9,6.4,1.5v-3.5c0-3.7-1.1-6.5-3.3-8.7c-2.2-2.1-5.4-3.2-9.5-3.2c-2.7,0-5.2,0.5-7.7,1.4c-2.4,1-5,2.3-7.8,4.1
		l-3-5.8c3.2-2.2,6.3-3.8,9.5-4.9c3.2-1.1,6.4-1.6,9.8-1.6c6.2,0,11.1,1.7,14.7,5.1c3.6,3.4,5.4,8.1,5.4,14.2v20.3
		c0,1,0.2,1.7,0.6,2.2c0.4,0.5,1.1,0.7,2,0.8v6.3c-0.8,0.1-1.5,0.2-2.1,0.3c-0.6,0.1-1.1,0.1-1.4,0.1c-1.9,0-3.4-0.5-4.3-1.6
		c-1-1.1-1.5-2.2-1.6-3.3l-0.2-3.1c-2.1,2.7-4.9,4.8-8.3,6.3c-3.4,1.5-6.8,2.2-10.1,2.2c-3.2,0-6.1-0.7-8.6-2
		c-2.5-1.3-4.5-3.1-5.9-5.4C170.8,59.7,170.1,57.2,170.1,54.4z M201.6,57.8c0.7-0.9,1.3-1.7,1.8-2.6c0.4-0.9,0.6-1.6,0.6-2.3v-6
		c-1.9-0.7-3.9-1.3-6-1.7c-2.1-0.4-4.2-0.6-6.2-0.6c-4.1,0-7.5,0.8-10.1,2.4c-2.6,1.6-3.9,3.8-3.9,6.7c0,1.5,0.4,3,1.3,4.5
		c0.8,1.4,2.1,2.6,3.7,3.5c1.6,0.9,3.7,1.4,6.1,1.4c2.5,0,5-0.5,7.2-1.5C198.5,60.6,200.3,59.3,201.6,57.8z"/>
	<path d="M247.3,69.3c-4.3,0-8.2-0.7-11.5-2c-3.3-1.3-6.1-3.2-8.4-5.5c-2.3-2.3-4-5-5.2-8c-1.2-3-1.8-6.1-1.8-9.4
		c0-4.4,1-8.5,3.1-12.3c2.1-3.8,5.1-6.9,9.1-9.2c4-2.3,8.9-3.5,14.6-3.5c5.9,0,10.8,1.2,14.9,3.7c4,2.5,7,5.7,9,9.6L254,37.9
		c-0.8-1.2-1.8-2.1-2.9-2.7c-1.1-0.6-2.4-0.9-3.9-0.9c-1.6,0-3.1,0.4-4.4,1.2s-2.3,1.9-3.1,3.4c-0.8,1.5-1.2,3.3-1.2,5.4
		c0,2.1,0.4,3.9,1.2,5.4c0.8,1.5,1.8,2.7,3.1,3.5s2.8,1.2,4.4,1.2c1,0,1.9-0.1,2.7-0.4c0.8-0.3,1.6-0.7,2.3-1.3
		c0.7-0.6,1.3-1.2,1.8-2l17.2,5.2c-1.3,2.6-3.1,4.9-5.3,6.9c-2.3,2-4.9,3.5-8,4.7C254.8,68.7,251.3,69.3,247.3,69.3z"/>
	<path d="M325.9,68.4h-17.6V41.5c0-2.4-0.5-4.1-1.6-5.1c-1.1-1.1-2.4-1.6-4-1.6c-0.7,0-1.7,0.3-2.7,0.8c-1.1,0.5-2.1,1.3-3.1,2.3
		c-1,1-1.8,2.2-2.3,3.5v26.9h-17.6V0.5h17.6v26.9c1.7-2.6,4-4.6,6.8-6c2.8-1.4,5.9-2.1,9.3-2.1c3.5,0,6.2,0.6,8.3,1.7
		c2,1.1,3.6,2.6,4.6,4.3c1,1.8,1.7,3.7,2,5.7c0.3,2,0.5,3.9,0.5,5.7V68.4z"/>
	<path d="M358.5,69.3c-4.3,0-8.1-0.7-11.4-2c-3.3-1.3-6.1-3.1-8.4-5.4c-2.3-2.3-4-4.8-5.2-7.8c-1.2-2.9-1.8-6-1.8-9.2
		c0-4.6,1-8.9,3.1-12.7c2-3.9,5-7,9-9.3c4-2.3,8.9-3.5,14.7-3.5c5.8,0,10.7,1.2,14.7,3.5c4,2.3,7,5.4,9,9.1c2,3.8,3.1,7.9,3.1,12.3
		c0,0.9,0,1.8-0.1,2.8c-0.1,0.9-0.2,1.8-0.3,2.5h-34.3c0.1,1.6,0.6,3,1.4,4c0.8,1,1.9,1.8,3.2,2.2c1.3,0.5,2.6,0.7,3.9,0.7
		c1.9,0,3.7-0.4,5.4-1.3c1.7-0.9,2.8-2.1,3.4-3.6l15,4.3c-1.3,2.6-3.1,4.9-5.4,6.9c-2.3,2-5.1,3.5-8.2,4.7
		C366,68.7,362.5,69.3,358.5,69.3z M350.2,39.1h16.2c-0.2-1.5-0.6-2.8-1.3-3.8c-0.7-1-1.6-1.9-2.8-2.4c-1.1-0.6-2.5-0.9-3.9-0.9
		s-2.8,0.3-3.9,0.9c-1.1,0.6-2.1,1.4-2.8,2.4C350.8,36.3,350.3,37.6,350.2,39.1z"/>
	<path d="M415.2,69.3c-4.3,0-8.2-0.7-11.5-2c-3.3-1.3-6.1-3.2-8.4-5.5c-2.3-2.3-4-5-5.2-8c-1.2-3-1.8-6.1-1.8-9.4
		c0-4.4,1-8.5,3.1-12.3c2.1-3.8,5.1-6.9,9.1-9.2c4-2.3,8.9-3.5,14.6-3.5c5.9,0,10.8,1.2,14.9,3.7c4,2.5,7,5.7,9,9.6l-17.2,5.2
		c-0.8-1.2-1.8-2.1-2.9-2.7c-1.1-0.6-2.4-0.9-3.9-0.9c-1.6,0-3.1,0.4-4.4,1.2s-2.3,1.9-3.1,3.4c-0.8,1.5-1.2,3.3-1.2,5.4
		c0,2.1,0.4,3.9,1.2,5.4c0.8,1.5,1.8,2.7,3.1,3.5s2.8,1.2,4.4,1.2c1,0,1.9-0.1,2.7-0.4c0.8-0.3,1.6-0.7,2.3-1.3
		c0.7-0.6,1.3-1.2,1.8-2L439,56c-1.3,2.6-3.1,4.9-5.3,6.9c-2.3,2-4.9,3.5-8,4.7C422.7,68.7,419.1,69.3,415.2,69.3z"/>
	<path d="M476.9,68.4l-11.1-17.6l-3.5,3.8v13.7h-17.6V0.5h17.6V38l13-17.9h18.6L477,41.2l18.5,27.1H476.9z"/>
</g>
</svg>
